<?xml version="1.0" standalone="no"?><!DOCTYPE svg PUBLIC "-//W3C//DTD SVG 1.1//EN" "http://www.w3.org/Graphics/SVG/1.1/DTD/svg11.dtd"><svg t="1661072337063" class="icon" viewBox="0 0 1024 1024" version="1.1" xmlns="http://www.w3.org/2000/svg" p-id="15149" xmlns:xlink="http://www.w3.org/1999/xlink" width="128" height="128"><defs><style type="text/css">@font-face { font-family: feedback-iconfont; src: url("//at.alicdn.com/t/font_1031158_u69w8yhxdu.woff2?t=1630033759944") format("woff2"), url("//at.alicdn.com/t/font_1031158_u69w8yhxdu.woff?t=1630033759944") format("woff"), url("//at.alicdn.com/t/font_1031158_u69w8yhxdu.ttf?t=1630033759944") format("truetype"); }
</style></defs><path d="M853.333333 85.333333 170.666667 85.333333C123.733333 85.333333 85.333333 123.733333 85.333333 170.666667l0 768 170.666667-170.666667 597.333333 0c46.933333 0 85.333333-38.4 85.333333-85.333333L938.666667 170.666667C938.666667 123.733333 900.266667 85.333333 853.333333 85.333333zM256 384l512 0 0 85.333333L256 469.333333 256 384zM597.333333 597.333333 256 597.333333l0-85.333333 341.333333 0L597.333333 597.333333zM768 341.333333 256 341.333333 256 256l512 0L768 341.333333z" p-id="15150"></path></svg>