<?xml version="1.0" standalone="no"?><!DOCTYPE svg PUBLIC "-//W3C//DTD SVG 1.1//EN" "http://www.w3.org/Graphics/SVG/1.1/DTD/svg11.dtd"><svg t="1661072735154" class="icon" viewBox="0 0 1024 1024" version="1.1" xmlns="http://www.w3.org/2000/svg" p-id="18127" xmlns:xlink="http://www.w3.org/1999/xlink" width="128" height="128"><defs><style type="text/css">@font-face { font-family: feedback-iconfont; src: url("//at.alicdn.com/t/font_1031158_u69w8yhxdu.woff2?t=1630033759944") format("woff2"), url("//at.alicdn.com/t/font_1031158_u69w8yhxdu.woff?t=1630033759944") format("woff"), url("//at.alicdn.com/t/font_1031158_u69w8yhxdu.ttf?t=1630033759944") format("truetype"); }
</style></defs><path d="M605.44 662.912v-0.042667h0.170667c18.218667 5.034667 35.712 11.008 50.688 21.76 54.272 38.4 40.917333 126.037333 40.917333 126.037334H86.784s-13.397333-87.637333 40.96-126.122667c15.36-10.88 33.152-17.066667 51.712-21.888 46.890667-12.117333 99.797333-15.701333 136.96-64.725333 0 0 18.986667-21.589333-24.149333-74.410667-43.349333-52.992-46.976-136.96-36.010667-201.856C267.093333 256.682667 328.362667 213.333333 391.936 213.333333c63.701333 0 125.013333 43.349333 135.68 108.330667 10.965333 64.938667 7.381333 148.864-36.010667 201.856-43.093333 52.821333-24.021333 74.410667-24.021333 74.410667 37.333333 49.493333 90.709333 52.736 137.898667 64.981333z m290.816 21.674667c54.357333 38.314667 40.96 126.037333 40.96 126.08h-182.741333c2.432-30.421333 4.821333-123.648-66.688-174.421334-23.765333-16.768-48.810667-25.045333-71.466667-31.104-8.533333-2.346667-17.706667-4.096-26.88-6.485333l-16.213333-3.626667c-14.421333-3.328-34.56-13.696-34.56-31.146666a28.885333 28.885333 0 0 1 7.978666-19.498667v-0.128c54.357333-81.237333 43.946667-188.16 36.693334-232.277333a175.786667 175.786667 0 0 0-31.146667-73.557334A140.757333 140.757333 0 0 1 631.637333 213.333333c63.573333 0 125.312 43.648 135.68 108.117334 11.008 65.152 7.338667 149.333333-36.053333 201.941333-42.752 53.12 66.602667 127.274667 114.261333 139.776 18.346667 4.821333 35.413333 10.666667 50.773334 21.418667z" p-id="18128"></path></svg>